PathFileType	4	(X/Y/Z)	Patient4_TMGait_0pt8_01_right_28.trc.trc
DataRate	CameraRate	NumFrames	NumMarkers	Units	OrigDataRate	OrigDataStartFrame	OrigNumFrames
88.607594936709	88.607594936709	6	33	mm	88.607594936709	53	       141
Frame#	Time	Sacral			L.Shoulder			Chest			R.Shoulder			Neck			R.ASIS			L.ASIS			R.Thigh.Superior			R.Thigh.Lateral			R.Thigh.Inferior			R.Patella			L.Thigh.Superior			L.Thigh.Lateral			L.Thigh.Inferior			L.Patella			L.Shank.Superior			L.Shank.Lateral			L.Shank.Inferior			R.Shank.Superior			R.Shank.Lateral			R.Shank.Inferior			R.Heel			R.Midfoot.Superior			R.Midfoot.Lateral			R.Toe			L.Heel			L.Midfoot.Lateral			L.Midfoot.Superior			L.Toe			L.Elbow			L.Wrist			R.Elbow			R.Wrist			
		X1	Y1	Z1	X2	Y2	Z2	X3	Y3	Z3	X4	Y4	Z4	X5	Y5	Z5	X6	Y6	Z6	X7	Y7	Z7	X8	Y8	Z8	X9	Y9	Z9	X10	Y10	Z10	X11	Y11	Z11	X12	Y12	Z12	X13	Y13	Z13	X14	Y14	Z14	X15	Y15	Z15	X16	Y16	Z16	X17	Y17	Z17	X18	Y18	Z18	X19	Y19	Z19	X20	Y20	Z20	X21	Y21	Z21	X22	Y22	Z22	X23	Y23	Z23	X24	Y24	Z24	X25	Y25	Z25	X26	Y26	Z26	X27	Y27	Z27	X28	Y28	Z28	X29	Y29	Z29	X30	Y30	Z30	X31	Y31	Z31	X32	Y32	Z32	X33	Y33	Z33	

53	31.856857142857	875.644947884317	1008.037602824340	566.550206785401	1045.873334438322	1437.089297399236	386.024337295853	1159.860197883812	1361.330457972174	537.633203938809	1092.980450054653	1432.936023448485	719.491869122010	1047.967081888526	1496.390779992151	543.480353642656	1105.430446571357	945.351893987998	673.677484714463	1096.392212443123	977.348642977321	405.228332331582	1142.515747775579	744.365522982958	645.560509940818	1061.139692561823	633.148286393342	702.929433905229	1141.994723073933	582.143216125639	626.904862839827	1141.135521733529	490.527156143017	633.678945047957	1168.852347149268	790.780850478537	416.392097785414	1125.885357985205	664.350298322716	332.932554430476	1235.417577346065	605.712914898532	384.948868882102	1257.367108186845	524.844272958748	372.536290397279	1211.469726575736	449.090819751002	363.538731502078	1090.762192647705	362.698054260467	318.545330068049	1129.532183281106	234.402230069388	364.084402090156	1104.775296578690	403.078445398483	634.190224947965	1022.061718105158	302.886483301362	687.753855336322	1062.091938705219	207.643354190634	623.183332800298	917.926497537345	47.035868054031	581.753817682959	1092.485491410695	99.652912744729	623.076141438020	1000.785334123670	38.092840594744	656.712813111677	1208.816678252782	42.495849329540	649.504527897108	980.938686843387	97.434186030426	405.644320536541	1041.602601313774	89.510675537118	315.756889626135	1137.359711091859	135.576098328539	333.229960614220	1248.194833817809	68.008159438591	282.025022534609	1001.859759417500	1084.175527268218	276.307452455762	1130.624146960162	855.067083257824	275.028828696467	1104.908262579292	1079.904320807016	831.835708689183	1256.995580199584	869.048437805350	803.288997122007	
54	31.868142857143	873.844491078774	1008.467548262366	567.112395486389	1044.123546273934	1437.078163972194	386.481281159256	1158.483683922247	1361.236454654934	537.742255470876	1092.292916735679	1432.728617046336	719.926812658741	1046.635192469973	1496.414043605753	544.042319542893	1103.548073434346	945.485983999911	674.166598745970	1087.488283493003	971.293719794500	403.271266290760	1138.037908769204	743.693884959323	645.603763976339	1055.380129261519	633.229455471172	703.407577048100	1135.075969671306	581.372104439774	627.208894023562	1132.842770681754	490.079930278377	633.839726168598	1166.583390994518	791.371304662732	416.874290222283	1124.680644387970	665.006571173180	332.646040109127	1233.733031061914	606.714676322439	385.466674847509	1257.083562936746	527.813577446711	372.773416043286	1215.134411723330	451.562656355435	363.054618653359	1100.479879141918	358.572517753241	316.358324321268	1146.484919830202	232.355359743232	361.689100424182	1096.537981567278	402.704617094495	634.351503887646	1013.574190956628	302.703581006581	687.838400130946	1053.374598940830	207.422398026140	623.229278694282	908.870241594111	46.924206270811	581.716393026328	1083.430126443252	99.606036798795	623.047806219847	991.679787436098	38.066307304879	656.682444701040	1199.698601684462	42.446900626119	649.540772640108	1005.956000368173	87.332325858984	401.110272902867	1068.166321436888	82.681725331825	312.097863834177	1161.112486809870	133.581407088874	330.784999113906	1275.879128789206	71.516000920280	281.270063050074	994.113639564571	1084.792355187898	277.276716985657	1107.361867979935	847.770251352462	273.422138896533	1114.706874033664	1080.216922904559	831.884501593807	1278.986787904802	879.638965818841	798.493013908843	
55	31.879428571429	872.075472514837	1008.760313487448	567.416023488022	1042.527621291702	1436.959528857439	386.785644940639	1157.135713719181	1361.016867133722	537.781308420104	1091.465278264041	1432.351426284799	720.241920058815	1045.311461136655	1496.298125132974	544.470506889876	1101.671860414685	945.512447592673	674.649645534577	1079.881260745018	965.992196467344	401.559045317648	1133.559286950954	742.873443674561	645.675900900328	1049.437003055336	633.245161186853	703.749524135656	1127.905853622362	580.515587574747	627.363172475991	1124.259383235016	489.624802061956	633.740489667282	1164.061973949173	791.304262709187	417.351212056886	1122.802856443149	665.135233718276	332.318004356759	1231.306600602045	606.945436655195	385.923714024588	1255.940796360184	530.167105921611	373.164524843729	1218.043172121265	453.799732047069	362.719449714431	1110.122627714608	354.544872333314	313.968815266927	1163.159567701834	230.915503660126	359.365306815353	1088.084218233048	402.309156743935	634.324500721773	1004.979462482756	302.451507316248	687.837502982529	1044.544219948024	207.152744337324	623.161699827110	899.777752818108	46.707932122132	581.675114925902	1074.309585292996	99.544254381254	622.992725469296	982.538302743865	38.012890579706	656.659887704840	1190.554147656135	42.443603439390	649.566067633110	1031.103344886760	78.383926480320	396.288381583675	1095.111535797853	76.880832147540	308.482499371627	1184.901651189948	132.452654345917	328.613900849687	1303.441606996258	75.976479159715	281.515969220370	986.288144569188	1085.481990430396	278.121504201914	1083.946332573070	841.897639223835	272.048913787460	1124.260209983923	1080.703561245430	831.604373529112	1300.327993555809	891.585258232918	793.241398814078	
56	31.890714285714	870.379877505417	1008.922971202322	567.492265260771	1041.090713695995	1436.749190293170	386.934368132064	1155.829446162978	1360.691632595666	537.744750026298	1090.520804459022	1431.840289837030	720.427427027809	1044.000973484158	1496.062901688994	544.754824538512	1099.834635597175	945.442470424282	675.108958726486	1074.100469892227	961.922295792566	400.299133120495	1129.080299034749	741.908848720644	645.779002186357	1043.292705174969	633.215525605022	703.953985223405	1120.468032745760	579.584834528796	627.371382437368	1115.373564457578	489.175441428307	633.390865984872	1161.319593659821	790.623557598670	417.792090481528	1120.270738456895	664.777211940401	331.915997722845	1228.218656423477	606.468552484537	386.243643548046	1254.009904814908	531.935671951643	373.663041368874	1220.213040105528	455.834811437726	362.511731296844	1119.594338694241	350.721466870757	311.454109978602	1179.397474379020	230.162891016946	357.185006965984	1079.398260088094	401.916420233698	634.120661327226	996.256278901940	302.153581692106	687.761028446329	1035.589530325914	206.851611023636	622.990675934518	890.648082210656	46.401836565586	581.633991328798	1065.124697685836	99.472297432969	622.918098332267	973.361600164806	37.935303065142	656.648060385315	1181.386191157636	42.484553628724	649.581551293828	1056.110062703494	70.751576879456	391.371378513958	1122.143394885234	72.197354686821	305.082691535423	1208.486416868640	132.241673824902	326.804478357117	1330.602716245840	81.370139090576	282.828980595494	978.416773268949	1086.278251870402	278.826321448087	1060.624068021971	837.421831970617	270.923958124836	1133.506770461562	1081.381173118240	830.981562242588	1320.817663252665	904.911085390320	787.570684784730	
57	31.902000000000	868.797460059302	1008.963299392970	567.375823266754	1039.810059395269	1436.461702353408	386.925143800215	1154.574528389233	1360.282802723400	537.625684339611	1089.482990612181	1431.234373594407	720.472889547259	1042.706821831170	1495.728399533057	544.885418792629	1098.068373824082	945.284275435311	675.517225012235	1070.216582779166	959.183326928867	399.533601548079	1124.601315875673	740.810005800615	645.901544313609	1036.950177025108	633.163386989232	704.025156013175	1112.768715894072	578.596053402448	627.240816365009	1106.203797242846	488.744480066648	632.817920241966	1158.400352812887	789.396445058776	418.163575981367	1117.146102119387	663.988295983179	331.414290644484	1224.590963267423	605.377950134824	386.366536547225	1251.402838351365	533.172628278892	374.214927489001	1221.685609727287	457.696106669856	362.394698461825	1128.758119465970	347.192376055891	308.928425170605	1195.015077898441	230.132220270422	355.211120112912	1070.484460174007	401.549858416820	633.762991272906	987.395086672999	301.837483476560	687.622896425308	1026.509229306039	206.539604307950	622.734973427099	881.484132881587	46.028837992001	581.598144567731	1055.880375901370	99.395122646733	622.831638751471	964.153318982646	37.838477563520	656.649353551267	1172.199166423581	42.566022344492	649.589826054975	1080.659391523884	64.534002102302	386.601255700998	1148.872762876289	68.663498559566	302.072520418809	1231.561196740935	132.943555217928	325.407302007061	1357.004249887248	87.606982889748	285.139981888571	970.541529905398	1087.210297127803	279.377914175901	1037.637673988368	834.281430237336	270.053271972905	1142.394194606530	1082.262287503283	830.007611568712	1340.257904454646	919.610173146455	781.524698107846	
58	31.913285714286	867.360952074842	1008.890537696239	567.100571202452	1038.674324022730	1436.109584425736	386.756565322519	1153.376616414035	1359.813012289574	537.415745301622	1088.375031561966	1430.573182000362	720.367943078927	1041.430111960382	1495.313240512597	544.853652225531	1096.401633241878	945.042358790731	675.839100782777	1067.993109136136	957.619795462337	399.188590225099	1120.126209156958	739.591252719605	646.018338699613	1030.436839186623	633.110318497358	703.971742921887	1104.841760043786	577.567866467409	626.980970596027	1096.803828361077	488.340363494037	632.063718924021	1155.362698396852	787.713554231508	418.435290327248	1113.538363064499	662.837176019165	330.801212651356	1220.582843805174	603.794454265571	386.259930508952	1248.272217423228	533.951399408677	374.763799284472	1222.526738696757	459.401176165943	362.323192772505	1137.440971132869	344.021191120683	306.534957997303	1209.804651525326	230.800849336739	353.495293409537	1061.371963459844	401.228400593967	633.283931628432	978.402108939822	301.531889924409	687.439174384095	1017.313821409059	206.237736461633	622.419934892074	872.291974295857	45.616892071573	581.572942032774	1046.585658638891	99.317206038697	622.740947015842	954.919507126131	37.728824137717	656.665259834565	1162.998432927087	42.681982396069	649.594209542896	1104.386864761516	59.752335691676	382.252153099171	1174.818382240730	66.244254651456	299.612878196787	1253.756822140830	134.487098454648	324.432259042349	1382.215363531587	94.518393638632	288.243373488912	962.709082092344	1088.299603769999	279.767811143512	1015.215826969136	832.383113957612	269.432847749418	1150.879999544789	1083.354489669946	828.679974284443	1358.459396545851	935.641598651290	775.156515590366	
